<svg id="SvgjsSvg1020" width="288" height="288" xmlns="http://www.w3.org/2000/svg" version="1.1" xmlns:xlink="http://www.w3.org/1999/xlink" xmlns:svgjs="http://svgjs.com/svgjs"><defs id="SvgjsDefs1021"></defs><g id="SvgjsG1022"><svg xmlns="http://www.w3.org/2000/svg" id="Icons" x="0" y="0" enable-background="new 0 0 32 32" version="1.1" viewBox="0 0 32 32" xml:space="preserve" width="288" height="288"><path d="M27,15H5c-0.6,0-1-0.4-1-1V2c0-0.6,0.4-1,1-1h22c0.6,0,1,0.4,1,1v12C28,14.6,27.6,15,27,15z M6,13h20V3H6V13z" fill="#ffffff" class="color000 svgShape"></path><path d="M16 12c-1.7 0-3-1.8-3-4s1.3-4 3-4 3 1.8 3 4S17.7 12 16 12zM29.9 16.5C29.7 16.2 29.4 16 29 16c-2.2 0-4.3 1-5.6 2.8L22.5 20c-1.1 1.3-2.8 2-4.5 2h-3c-.6 0-1-.4-1-1s.4-1 1-1h1.9c1.6 0 3.1-1.3 3.1-2.9 0 0 0-.1 0-.1 0-.5-.5-1-1-1l-6.1 0c-3.6 0-6.5 1.6-8.1 4.2l-2.7 4.2c-.2.3-.2.7 0 1l3 5c.1.2.4.4.6.5.1 0 .1 0 .2 0 .2 0 .4-.1.6-.2 3.8-2.5 8.2-3.8 12.7-3.8 3.3 0 6.3-1.8 7.9-4.7l2.7-4.8C30 17.2 30 16.8 29.9 16.5zM9 2H8 5v3 1 1c2.8 0 5-2.2 5-5H9zM5 10v1 3h3 1 1c0-2.8-2.2-5-5-5V10zM23 14h1 3v-3-1V9c-2.8 0-5 2.2-5 5H23zM27 6V5 2h-3-1-1c0 2.8 2.2 5 5 5V6z" fill="#ffffff" class="color000 svgShape"></path></svg></g></svg>